<svg width="20" height="20" viewBox="0 0 20 20" fill="none" xmlns="http://www.w3.org/2000/svg">
<path d="M18.4504 12.4805C18.846 12.4805 19.1666 12.1599 19.1666 11.7644V7.10946C19.1666 5.52993 17.8815 4.24487 16.302 4.24487H15.2149C14.9082 4.24487 14.6357 4.04983 14.5369 3.75947L14.3202 3.12292C14.0237 2.25195 13.2064 1.66675 12.2864 1.66675H7.71122C6.80902 1.66675 5.99695 2.23691 5.69055 3.08547L5.44265 3.77197C5.34049 4.05481 5.06983 4.24487 4.76908 4.24487H3.69783C2.1183 4.24487 0.833252 5.52993 0.833252 7.10946V15.3451C0.833252 16.9247 2.1183 18.2097 3.69783 18.2097H16.302C17.8815 18.2097 19.1666 16.9247 19.1666 15.3451C19.1666 14.9496 18.846 14.629 18.4504 14.629C18.0549 14.629 17.7343 14.9496 17.7343 15.3451C17.7343 16.1349 17.0918 16.7774 16.302 16.7774H3.69783C2.90807 16.7774 2.26554 16.1349 2.26554 15.3451V7.10946C2.26554 6.31969 2.90807 5.67716 3.69783 5.67716H4.76908C5.67128 5.67716 6.48336 5.10701 6.78976 4.25844L7.03765 3.57195C7.13981 3.2891 7.41048 3.09904 7.71122 3.09904H12.2864C12.593 3.09904 12.8655 3.29412 12.9643 3.58444L13.181 4.22099C13.4775 5.09197 14.2948 5.67716 15.2149 5.67716H16.302C17.0918 5.67716 17.7343 6.31969 17.7343 7.10946V11.7644C17.7343 12.1599 18.0549 12.4805 18.4504 12.4805Z" fill="#54B6AB"/>
<path fill-rule="evenodd" clip-rule="evenodd" d="M5.55981 10.8692C5.55981 8.4012 7.56771 6.39331 10.0357 6.39331C12.5037 6.39331 14.5116 8.4012 14.5116 10.8692C14.5116 13.3372 12.5037 15.3451 10.0357 15.3451C7.56771 15.3451 5.55981 13.3372 5.55981 10.8692ZM6.99211 10.8692C6.99211 12.5475 8.35747 13.9128 10.0357 13.9128C11.714 13.9128 13.0793 12.5475 13.0793 10.8692C13.0793 9.19097 11.714 7.8256 10.0357 7.8256C8.35747 7.8256 6.99211 9.19097 6.99211 10.8692Z" fill="#54B6AB"/>
</svg>
