<svg width="25" height="21" viewBox="0 0 25 21" fill="none" xmlns="http://www.w3.org/2000/svg">
<path d="M0.800015 0.0384922C0.517814 0.0933933 0.265318 0.270767 0.126693 0.507264C-0.0911467 0.883127 -0.026785 1.24632 0.309876 1.5335C0.611881 1.78689 0.760408 1.81223 2.00308 1.81223C3.17645 1.81223 3.32497 1.83756 3.50816 2.06139C3.55766 2.12052 4.41417 4.26167 5.41425 6.81669C7.52828 12.2392 7.37481 11.6564 7.02329 12.8432C6.70644 13.9158 6.74604 14.4395 7.20152 15.0941C7.54809 15.5924 8.28577 16.057 8.91949 16.1668C9.10267 16.2006 11.1919 16.209 15.8705 16.2048L22.5592 16.1921L22.7523 16.0781C22.8563 16.0148 22.9998 15.8923 23.0692 15.8036C23.1731 15.6727 23.1929 15.6009 23.1929 15.3264C23.1929 15.0434 23.1781 14.9843 23.0592 14.8365C22.985 14.7478 22.8414 14.6253 22.7374 14.5662L22.5543 14.4606L15.9201 14.4395C8.70165 14.4184 9.16208 14.4353 8.9888 14.1819C8.87988 14.0256 8.88978 13.9158 9.03831 13.4133C9.18188 12.9276 9.24129 12.822 9.46904 12.708C9.62251 12.6278 9.76609 12.6236 15.4398 12.6236C19.8956 12.6236 21.2967 12.6109 21.4552 12.5729C21.569 12.5433 21.7473 12.4462 21.8611 12.3448C22.0641 12.1759 22.0839 12.121 23.5345 8.41727C24.3415 6.35214 25 4.60797 25 4.5404C25 4.20254 24.7327 3.84357 24.3861 3.70843C24.193 3.63241 23.8415 3.62819 15.5438 3.62819C9.8354 3.62819 6.84506 3.6113 6.72129 3.58596C6.36977 3.5015 6.29056 3.37058 5.7113 1.87557C5.23107 0.646629 5.15185 0.473479 4.98352 0.308775C4.67657 0.00893021 4.56765 -0.00374031 2.6269 0.000484467C1.71098 0.00470734 0.889131 0.0215988 0.800015 0.0384922Z" fill="#555555"/>
<path d="M7.77048 17.2267C6.95358 17.4843 6.41888 18.0714 6.34957 18.7935C6.2456 19.8662 7.34965 20.808 8.60718 20.7193C9.47854 20.656 10.2014 20.1618 10.4638 19.4439C10.6024 19.0723 10.5578 18.5528 10.3598 18.1896C10.142 17.7969 9.82015 17.5139 9.36467 17.3239C9.02801 17.1803 8.95374 17.1634 8.51806 17.1549C8.13684 17.1423 7.98832 17.1592 7.77048 17.2267Z" fill="#555555"/>
<path d="M20.445 17.2267C19.6281 17.4843 19.0934 18.0714 19.0241 18.7935C18.9202 19.8662 20.0242 20.808 21.2817 20.7193C22.1531 20.656 22.8759 20.1618 23.1383 19.4439C23.277 19.0723 23.2324 18.5528 23.0344 18.1896C22.8165 17.7969 22.4947 17.5139 22.0392 17.3239C21.7026 17.1803 21.6283 17.1634 21.1926 17.1549C20.8114 17.1423 20.6629 17.1592 20.445 17.2267Z" fill="#555555"/>
<path d="M7.07692 6.38462C6.80247 5.72593 7.28642 5 8 5H22C22.7136 5 23.1975 5.72593 22.9231 6.38462L21.2564 10.3846C21.1011 10.7573 20.737 11 20.3333 11H9.66667C9.26297 11 8.89886 10.7573 8.74359 10.3846L7.07692 6.38462Z" fill="white"/>
</svg>
