<svg width="22" height="23" viewBox="0 0 22 23" fill="none" xmlns="http://www.w3.org/2000/svg">
<path id="Vector" d="M8.0194 20.476V17.4093C8.01938 16.6292 8.6553 15.9954 9.44318 15.9902H12.3293C13.1209 15.9902 13.7627 16.6255 13.7627 17.4093V20.4855C13.7625 21.1478 14.2965 21.6891 14.9652 21.7046H16.8893C18.8073 21.7046 20.3622 20.1653 20.3622 18.2664V9.54243C20.352 8.79542 19.9977 8.09394 19.4002 7.63762L12.8199 2.38989C11.6671 1.47616 10.0284 1.47616 8.87558 2.38989L2.32421 7.64715C1.72444 8.10161 1.36957 8.80426 1.36218 9.55195V18.2664C1.36218 20.1653 2.91706 21.7046 4.83509 21.7046H6.75914C7.44453 21.7046 8.00015 21.1545 8.00015 20.476" stroke="#555555" stroke-width="1.5" stroke-linecap="round" stroke-linejoin="round"/>
</svg>
