<svg width="28" height="24" viewBox="0 0 28 24" fill="none" xmlns="http://www.w3.org/2000/svg">
<path d="M21.8567 11H5.94338C4.68785 11 3.67004 11.8954 3.67004 13V20C3.67004 21.1046 4.68785 22 5.94338 22H21.8567C23.1122 22 24.13 21.1046 24.13 20V13C24.13 11.8954 23.1122 11 21.8567 11Z" stroke="black" stroke-opacity="0.3" stroke-width="2" stroke-linecap="round" stroke-linejoin="round"/>
<path d="M8.21667 11V7C8.21667 5.67392 8.81545 4.40215 9.88128 3.46447C10.9471 2.52678 12.3927 2 13.9 2C15.4073 2 16.8529 2.52678 17.9187 3.46447C18.9846 4.40215 19.5833 5.67392 19.5833 7V11" stroke="black" stroke-opacity="0.3" stroke-width="2" stroke-linecap="round" stroke-linejoin="round"/>
</svg>
