<svg width="22" height="18" viewBox="0 0 22 18" fill="none" xmlns="http://www.w3.org/2000/svg">
<path d="M11.0014 0C4.92643 0 0.00285139 3.74062 0.00285139 8.35714C0.00285139 10.2696 0.857819 12.0214 2.2756 13.4317C1.63545 15.0147 0.303594 16.3567 0.282112 16.3728C-0.00144494 16.654 -0.0787787 17.0638 0.0844814 17.4174C0.247742 17.771 0.621521 18 1.03397 18C3.6762 18 5.75992 16.9674 7.01015 16.1397C8.25178 16.5054 9.59223 16.7143 11.0014 16.7143C17.0764 16.7143 22 12.9737 22 8.35714C22 3.74062 17.0764 0 11.0014 0ZM11.0014 14.7857C9.85431 14.7857 8.72008 14.621 7.63311 14.2996L6.65785 14.0103L5.82007 14.5647C5.20569 14.9705 4.36361 15.4246 3.34968 15.7299C3.66331 15.2438 3.96835 14.6973 4.20465 14.1147L4.66006 12.9857L3.77502 12.1098C2.99739 11.3344 2.06508 10.0527 2.06508 8.35714C2.06508 4.81339 6.07355 1.92857 11.0014 1.92857C15.9293 1.92857 19.9378 4.81339 19.9378 8.35714C19.9378 11.9009 15.9293 14.7857 11.0014 14.7857Z" fill="#555555"/>
</svg>
