<svg width="45" height="45" viewBox="0 0 45 45" fill="none" xmlns="http://www.w3.org/2000/svg">
<circle cx="22.5" cy="22.5" r="22.5" fill="#FEFEFE"/>
<path d="M26 30.4062C26 32.3878 24.6542 34 23 34C21.3458 34 20 32.3878 20 30.4062C20 28.4247 21.3458 26.8125 23 26.8125C24.6542 26.8125 26 28.4247 26 30.4062ZM20.3473 12.132L20.8573 24.3507C20.8812 24.9245 21.2765 25.375 21.7561 25.375H24.2439C24.7235 25.375 25.1188 24.9245 25.1427 24.3507L25.6528 12.132C25.6784 11.5162 25.2686 11 24.7539 11H21.2461C20.7314 11 20.3216 11.5162 20.3473 12.132Z" fill="#70B9BE"/>
</svg>
